PathFileType	4	(X/Y/Z)	41_2_95_p1_0-349_filt_butterworth.trc
DataRate	CameraRate	NumFrames	NumMarkers	Units	OrigDataRate	OrigDataStartFrame	OrigNumFrames
60.0	60.0	6	27	m	60.0	261	349
Frame#	Time	RHip			RKnee			RAnkle			RBigToe			RSmallToe			RHeel			LHip			LKnee			LAnkle			LBigToe			LSmallToe			LHeel			Neck			Head			Nose			RShoulder			RElbow			RWrist			RThumb			RIndex			RPinky			LShoulder			LElbow			LWrist			LThumb			LIndex			LPinky			
		X1	Y1	Z1	X2	Y2	Z2	X3	Y3	Z3	X4	Y4	Z4	X5	Y5	Z5	X6	Y6	Z6	X7	Y7	Z7	X8	Y8	Z8	X9	Y9	Z9	X10	Y10	Z10	X11	Y11	Z11	X12	Y12	Z12	X13	Y13	Z13	X14	Y14	Z14	X15	Y15	Z15	X16	Y16	Z16	X17	Y17	Z17	X18	Y18	Z18	X19	Y19	Z19	X20	Y20	Z20	X21	Y21	Z21	X22	Y22	Z22	X23	Y23	Z23	X24	Y24	Z24	X25	Y25	Z25	X26	Y26	Z26	X27	Y27	Z27	
261	4.35	0.3886192174383688	0.5810239754947568	-0.10915529784331421	0.39099526445083466	0.6270149236802233	0.3351556217467614	0.34808777656879775	0.6683718181490887	0.7161999883223138	0.42285374166272477	0.5483250726258574	0.7443487743000826	0.44826197090614334	0.6030448202611416	0.7630595243638633	0.32154748870050265	0.6890177981501145	0.7648697760957577	0.23727363107334484	0.4818101630064656	-0.14544410504851993	0.257992735643574	0.5120234913940991	0.2932573710781743	0.17887028233378882	0.6526930651836428	0.7585748530253303	0.3459148357926344	0.5486145700854507	0.7641638850205987	0.27535190425215555	0.5428565450361804	0.7838683985480834	0.15068660580938226	0.6406235679959378	0.7867968454086721	0.38404283025201225	0.4800958414968606	-0.6320588365184447	0.43562203326417986	0.31078074649055815	-0.8917678354753124	0.37576707908219087	0.2962615904846454	-0.7177486139254567	0.4722508198896914	0.5941505822672903	-0.5627378406106261	0.5069016580621377	0.6752910919823077	-0.3038218248763965	0.5871752226576707	0.7020636143591954	-0.04627941545720484	0.5710125392650087	0.6285734389495916	0.05577710755245592	0.594083421647386	0.6495096596762752	0.08087086604101534	0.5841160387531515	0.7281709602384313	0.10589836406654315	0.2510848613860136	0.4237379221116805	-0.6030800655635307	0.04179261739772622	0.43416701715219264	-0.45480821822741935	-0.1379048344804947	0.49758543017179824	-0.3109178291789915	-0.1589282004215902	0.5011777882648081	-0.20681476382064362	-0.19976249436290155	0.5120737236947385	-0.20038191910328132	-0.18984570188464917	0.5287573558992656	-0.22722143303317194
262	4.366666666666666	0.3860949857302839	0.583261729202072	-0.10905093960868403	0.3908807724249972	0.6268469090192312	0.3346021494938516	0.3481234259902808	0.6682628771082204	0.716101821780267	0.4241188016457807	0.549640288608958	0.7430740724164614	0.4500035987249714	0.6028701562150153	0.7619914426645861	0.32122802122749533	0.6887326257691258	0.7647624504287445	0.23520981179405379	0.4889015820071798	-0.14489561601223633	0.25939066794021565	0.5067607331630817	0.2917837538075108	0.17896987262665098	0.6524518396738822	0.75852526974753	0.3472767443927941	0.550964592096479	0.7643556052320647	0.2754437360199037	0.5412677820742104	0.7816896060717742	0.15064535780101368	0.6404317139238744	0.7867697525036149	0.38532255380066344	0.48373416959945703	-0.6309647338367766	0.4361845950879936	0.31096299566426433	-0.8904696696203414	0.3777260601664122	0.2933902091627356	-0.7161463692412717	0.4709306933853766	0.6015299701089465	-0.5627687146285837	0.5016838717324488	0.6722689643471041	-0.3036238908125739	0.584069710465633	0.7155593926597097	-0.04334736604650441	0.5712814938640325	0.6333117684472517	0.05753760536146252	0.593385444645249	0.6507650468410966	0.08159482360548952	0.5841164096670333	0.7384951252801943	0.10889454664963424	0.25167905354400233	0.4238837348583453	-0.6027823208795312	0.05113195988817696	0.4535504670792423	-0.44425417684132684	-0.11986695665191145	0.5096331655988819	-0.2890478309601374	-0.12928795243389202	0.5117557450201338	-0.18412213634798746	-0.1700621927402242	0.5283188648672527	-0.1750108466097288	-0.16381359286777863	0.5387057244125516	-0.19837206334732646
263	4.383333333333334	0.3843263015732701	0.5877360284696809	-0.10909400325890874	0.3908304612509967	0.6267124523723899	0.33444792082606734	0.34811816679688956	0.6682384692403787	0.7157999900478578	0.4254911755347886	0.5498091635761736	0.7422964232757404	0.45043449371521455	0.605840825326369	0.7622898788573977	0.32050184983247265	0.6889998629045786	0.7649703947363062	0.23333901010811584	0.49488785606551666	-0.14501274850673104	0.26063244099757366	0.5012567702912002	0.28877085645521605	0.17904319937322696	0.6521353619855395	0.7584757748338945	0.34603005934504655	0.547882377131222	0.7613283544961511	0.2752920994567878	0.5444658245028182	0.7807640080922192	0.15056455281036857	0.6403107996919019	0.7867224292880667	0.38587906821067663	0.4852142494082317	-0.6293862660973084	0.4362830904148678	0.31101241225041554	-0.8899792994112802	0.3794189442612717	0.2893926604865775	-0.7141688709060323	0.47090322411141855	0.6020941974207047	-0.5623024994481267	0.49777657498132566	0.667094791003611	-0.3037412294233355	0.5811158491032659	0.726563944933167	-0.04025630217182242	0.5704525127956779	0.6371060232627799	0.05705577625372065	0.5922512622444461	0.6505790484013718	0.08043170557002084	0.5810835498553458	0.7442611264461649	0.10764265915885027	0.2529113088633623	0.4240658412651461	-0.6028587999934223	0.06402003309317941	0.4758411893517762	-0.43534619730566937	-0.1038609932476796	0.5284285610108956	-0.27257330018792997	-0.10523417295071288	0.5313878213397015	-0.162321669674001	-0.1435100455041677	0.534959246280297	-0.15558882971816507	-0.1368606889828969	0.5332084122467055	-0.17944286342412805
264	4.4	0.383196628468236	0.5932614530708205	-0.10912189438168704	0.39067627601895116	0.6264581627434959	0.33433031767068866	0.34799965266320604	0.6682743590776266	0.715174118094935	0.4264983284244368	0.5496419032078524	0.7420804772265255	0.44977167105454907	0.611138211828682	0.76408964435731	0.3197143907540662	0.6896361497545175	0.765421127159879	0.23212480355459522	0.49825219094588474	-0.145318832250298	0.2618034486187482	0.4959040573347693	0.28505953364084735	0.17905219336722358	0.6519109046611732	0.7584018921474043	0.3429761661281682	0.5401839134894046	0.7550962070581893	0.27480567848374116	0.5500313260976475	0.7805742514940541	0.15046190660503359	0.6402882778972472	0.7866360324526176	0.38550377678075415	0.4841840399606889	-0.6279735548048605	0.43627179644635417	0.31097093612539917	-0.8900066278588943	0.3803711244467073	0.286559899564903	-0.7128894803190436	0.47222684103117774	0.5950267054606594	-0.5617060511431787	0.4964544530587439	0.6629844845502053	-0.30395154182060574	0.5791484168088817	0.7345717591017837	-0.03722693488516067	0.5675328291911211	0.6357142542359111	0.05359578198581348	0.5907321553361673	0.6487671506941535	0.07628167488540383	0.5772730720600805	0.7496427701616182	0.10467452666199789	0.2544045973205144	0.4242738198445914	-0.6030281590658618	0.07661534266722948	0.4936541250166323	-0.4282258254664867	-0.0903657910209082	0.5493980778828556	-0.2610805156583754	-0.08687045329171753	0.5581013362724565	-0.14472433284122083	-0.12356119384154074	0.5341142768215165	-0.14426281155150134	-0.11444950616741414	0.5227980995486358	-0.16847296763311637
265	4.416666666666667	0.3829904580068351	0.5974110379547952	-0.10872642418043342	0.3902818025495377	0.6260738027863341	0.334292916462128	0.3477409477755473	0.6682978534725267	0.7146382209034692	0.4268854394122411	0.5494614236544195	0.7424100814738471	0.448950640640889	0.6155985834335729	0.7659811503521271	0.31930372838584237	0.6901284747336505	0.7658260607543403	0.2316531011468921	0.4991975843172983	-0.14514649382241482	0.2626901416115742	0.492196484426884	0.28226704100382033	0.17902542260455673	0.6518089463003751	0.7583378023368139	0.3402065041032068	0.5327420019468879	0.7492548003873725	0.27413374751484215	0.5542450782627192	0.7805775426956042	0.1503738535034044	0.6403127342404817	0.7865046106849055	0.38427333059602553	0.4809308259751288	-0.6273424890207778	0.4363105003339874	0.310849011023343	-0.8904846857223093	0.38036301937321093	0.28663347710196246	-0.712981588524259	0.4738577981624796	0.5856374088152311	-0.5615151560220859	0.49695349316650306	0.6624671643564266	-0.30376507238110295	0.5782733118307787	0.7391072975933876	-0.03506091085700279	0.5628983328696162	0.6295756185196618	0.04906718375986316	0.5893368802692356	0.648429586366911	0.07145704968736388	0.5749994117966071	0.7550009148636894	0.10241046063969594	0.255489034673435	0.42448040653850955	-0.6031288640762941	0.08472378404578251	0.5030116986521341	-0.4222019803029846	-0.08136859615628428	0.5656577289412495	-0.2531062342526572	-0.07407600276257408	0.5846134528389446	-0.13338135217519978	-0.1119129090920303	0.5349717555798917	-0.13926520814483256	-0.10142382996900175	0.5161290759456751	-0.16206737632528334
266	4.433333333333334	0.38344526649022803	0.5991711131472813	-0.10761506905701673	0.3897817199053337	0.6258020525619097	0.3347535233117642	0.3474580329345995	0.6683036212506506	0.7151927876592655	0.426931630055264	0.5494146571377789	0.7429016086344763	0.44851611411851333	0.6174491950224131	0.7668568060663764	0.31940579027235527	0.6902347123137974	0.7663433695659793	0.23160641809828766	0.49913087180443566	-0.14411362557846188	0.26315238784269446	0.490842061931039	0.2811896051266096	0.17899552527400622	0.6517931146172313	0.75832368528951	0.338888673731855	0.528777378190211	0.7468664589968884	0.27372426233309244	0.5557549168280795	0.7809006520163403	0.15033043217842287	0.640325035460505	0.7863630725968784	0.38273632324923734	0.4767483409197013	-0.627490421255302	0.43626473749595807	0.3106725893425076	-0.8914904051177732	0.3794483565905364	0.2895110606860712	-0.7141590368257148	0.47485789386885086	0.5793830408447114	-0.5615892625327366	0.49779991138775254	0.66601855888391	-0.3031439755785795	0.5778475007041269	0.7405248468719822	-0.034151084863244245	0.5589262200103754	0.6265389280333861	0.04699882978321094	0.5887445884535769	0.655174344522019	0.07008334016096716	0.5739598632607937	0.7558159562656833	0.1008748605723011	0.2559417576123414	0.4246108827601127	-0.6031368906992711	0.08721089753421703	0.5055890381819447	-0.417870523893648	-0.07843283028700926	0.574966162189643	-0.24847442731967073	-0.06777637885181911	0.6030656947649882	-0.12815219674966682	-0.10924746389084738	0.5417108884362504	-0.13713939343511355	-0.09879622122128669	0.5153321527984163	-0.15955333821578654
